<mxfile host="65bd71144e">
    <diagram id="xxZzXZ8YhVWEgs-gSsk8" name="第 1 页">
        <mxGraphModel dx="745" dy="411" grid="1" gridSize="10" guides="1" tooltips="1" connect="1" arrows="1" fold="1" page="1" pageScale="1" pageWidth="1169" pageHeight="827" math="0" shadow="0">
            <root>
                <mxCell id="0"/>
                <mxCell id="1" parent="0"/>
                <mxCell id="2" value="" style="shape=cube;whiteSpace=wrap;html=1;boundedLbl=1;backgroundOutline=1;darkOpacity=0.05;darkOpacity2=0.1;fillColor=#f8cecc;strokeColor=#b85450;" vertex="1" parent="1">
                    <mxGeometry x="270" y="390" width="30" height="120" as="geometry"/>
                </mxCell>
                <mxCell id="3" value="" style="shape=cube;whiteSpace=wrap;html=1;boundedLbl=1;backgroundOutline=1;darkOpacity=0.05;darkOpacity2=0.1;fillColor=#f8cecc;strokeColor=#b85450;" vertex="1" parent="1">
                    <mxGeometry x="210" y="390" width="30" height="120" as="geometry"/>
                </mxCell>
                <mxCell id="4" value="" style="shape=cube;whiteSpace=wrap;html=1;boundedLbl=1;backgroundOutline=1;darkOpacity=0.05;darkOpacity2=0.1;fillColor=#dae8fc;strokeColor=#6c8ebf;size=20;" vertex="1" parent="1">
                    <mxGeometry x="240" y="400" width="30" height="100" as="geometry"/>
                </mxCell>
                <mxCell id="5" value="" style="shape=cube;whiteSpace=wrap;html=1;boundedLbl=1;backgroundOutline=1;darkOpacity=0.05;darkOpacity2=0.1;fillColor=#dae8fc;strokeColor=#6c8ebf;size=20;" vertex="1" parent="1">
                    <mxGeometry x="300" y="400" width="30" height="100" as="geometry"/>
                </mxCell>
                <mxCell id="6" value="" style="shape=cube;whiteSpace=wrap;html=1;boundedLbl=1;backgroundOutline=1;darkOpacity=0.05;darkOpacity2=0.1;" vertex="1" parent="1">
                    <mxGeometry x="340" y="410" width="30" height="80" as="geometry"/>
                </mxCell>
                <mxCell id="7" value="Conv" style="text;html=1;align=center;verticalAlign=middle;resizable=0;points=[];autosize=1;strokeColor=none;fillColor=none;" vertex="1" parent="1">
                    <mxGeometry x="200" y="360" width="50" height="30" as="geometry"/>
                </mxCell>
                <mxCell id="8" value="Conv" style="text;html=1;align=center;verticalAlign=middle;resizable=0;points=[];autosize=1;strokeColor=none;fillColor=none;" vertex="1" parent="1">
                    <mxGeometry x="260" y="360" width="50" height="30" as="geometry"/>
                </mxCell>
                <mxCell id="9" value="Relu" style="text;html=1;align=center;verticalAlign=middle;resizable=0;points=[];autosize=1;strokeColor=none;fillColor=none;" vertex="1" parent="1">
                    <mxGeometry x="230" y="500" width="50" height="30" as="geometry"/>
                </mxCell>
                <mxCell id="10" value="Relu" style="text;html=1;align=center;verticalAlign=middle;resizable=0;points=[];autosize=1;strokeColor=none;fillColor=none;" vertex="1" parent="1">
                    <mxGeometry x="290" y="500" width="50" height="30" as="geometry"/>
                </mxCell>
                <mxCell id="11" value="Maxpool" style="text;html=1;align=center;verticalAlign=middle;resizable=0;points=[];autosize=1;strokeColor=none;fillColor=none;" vertex="1" parent="1">
                    <mxGeometry x="320" y="490" width="70" height="30" as="geometry"/>
                </mxCell>
                <mxCell id="12" value="8*11*11" style="text;html=1;align=center;verticalAlign=middle;resizable=0;points=[];autosize=1;strokeColor=none;fillColor=none;" vertex="1" parent="1">
                    <mxGeometry x="150" y="435" width="60" height="30" as="geometry"/>
                </mxCell>
                <mxCell id="13" value="num_hiddens*1*1" style="text;html=1;align=center;verticalAlign=middle;resizable=0;points=[];autosize=1;strokeColor=none;fillColor=none;" vertex="1" parent="1">
                    <mxGeometry x="370" y="435" width="120" height="30" as="geometry"/>
                </mxCell>
            </root>
        </mxGraphModel>
    </diagram>
</mxfile>